# xmcd CD database file generated by OrangeCD 5.2
#
# Track frame offsets:
#	225
#	15599
#	28384
#	43887
#	59947
#	74862
#	89673
#	104580
#	118625
#	135776
#	147938
#	165363
#	179497
#	196740
#	211698
#	230987
#	245569
#	261473
#
# Disc length: 3712 seconds
#
# Revision: 1
# Processed by: cddbd v1.5.1PL0 Copyright (c) Steve Scherf et al.
# Submitted via: OrangeCD 5.2
#
DISCID=1d0e7d12
DTITLE=Bo Göran Svensson - Förälskad
DYEAR=1997
DGENRE=Country
TTITLE0=Malene
TTITLE1=Peta Din Filofax
TTITLE2=Låt Det Räcka
TTITLE3=Så Nästan Så Nära
TTITLE4=Ett Brustet Hjärtas Långvårdspatient
TTITLE5=Antingen Eller
TTITLE6=Lugn Och Fin
TTITLE7=Så Ville Jag Följt Med
TTITLE8=Om Du Fick En Egen Sång
TTITLE9=Förälskad
TTITLE10=En Allra Sista Kväll
TTITLE11=Lika Varken Tur I Spel
TTITLE12=Vad Gör Hon Så Sent Om Kvällen
TTITLE13=Får Jag Lov
TTITLE14=Illa Var Det Värre Mycket Förr
TTITLE15=Goddag! Herr Ensamhet
TTITLE16=All That Heaven Will Allow
TTITLE17=Efterlys, efterlys
EXTD=
EXTT0=
EXTT1=
EXTT2=
EXTT3=
EXTT4=
EXTT5=
EXTT6=
EXTT7=
EXTT8=
EXTT9=
EXTT10=
EXTT11=
EXTT12=
EXTT13=
EXTT14=
EXTT15=
EXTT16=
EXTT17=
PLAYORDER=
